# xmcd
#
# Track frame offsets:
#	152
#	19026
#	57207
#	79335
#	89279
#	113082
#	137841
#	147097
#	167276
#	185311
#
# Disc length: 2827 seconds
#
# Revision: 1
# Processed by: cddbd v1.4PL0 Copyright (c) Steve Scherf et al.
# Submitted via: audiograbber 1.81.03
#
DISCID=780b090a
DTITLE=Danny Eyer - Boxes Of Blues
DYEAR=2001
DGENRE=Blues
TTITLE0=Make Me An Offer
TTITLE1=Troubled Times
TTITLE2=You Made Me What I Am Today
TTITLE3=Give It All I Got
TTITLE4=Shake These Blues
TTITLE5=Television Woman
TTITLE6=Jukebox Stomp
TTITLE7=Have A Little Patience With Me
TTITLE8=I Can't Believe
TTITLE9=The Man That Time Forgot
EXTD=
EXTT0=
EXTT1=
EXTT2=
EXTT3=
EXTT4=
EXTT5=
EXTT6=
EXTT7=
EXTT8=
EXTT9=
PLAYORDER=
